#N canvas 0 22 224 353 10;
#X obj 66 25 r pitch;
#X obj 66 115 * 1000;
#X obj 66 145 + 100;
#X obj 66 235 osc~ 440;
#X obj 66 265 *~ 0.5;
#X obj 66 295 dac~;
#X msg 66 175 \$1 100;
#X obj 66 205 line~;
#X obj 66 55 max 0;
#X obj 66 85 min 1;
#X connect 0 0 8 0;
#X connect 1 0 2 0;
#X connect 2 0 6 0;
#X connect 3 0 4 0;
#X connect 4 0 5 0;
#X connect 4 0 5 1;
#X connect 6 0 7 0;
#X connect 7 0 3 0;
#X connect 8 0 9 0;
#X connect 9 0 1 0;
