#N canvas 0 22 329 626 10;
#X obj 64 554 dac~;
#X obj 64 474 tabread4~ test;
#X obj 169 474 table test;
#X obj 91 95 samplerate~;
#X obj 64 125 /;
#X obj 64 434 *~;
#X msg 64 155 1 \$1;
#X obj 64 185 /;
#X obj 64 364 phasor~;
#X obj 64 294 f;
#X obj 80 226 r speed;
#X obj 80 256 t b f;
#X obj 64 324 * 1;
#X obj 64 35 r table-size;
#X obj 79 404 r table-size;
#X obj 64 65 t f b;
#X obj 64 514 *~ 0.707;
#X connect 1 0 16 0;
#X connect 3 0 4 1;
#X connect 4 0 6 0;
#X connect 5 0 1 0;
#X connect 6 0 7 0;
#X connect 7 0 9 0;
#X connect 8 0 5 0;
#X connect 9 0 12 0;
#X connect 10 0 11 0;
#X connect 11 0 9 0;
#X connect 11 1 12 1;
#X connect 12 0 8 0;
#X connect 13 0 15 0;
#X connect 14 0 5 1;
#X connect 15 0 4 0;
#X connect 15 1 3 0;
#X connect 16 0 0 0;
#X connect 16 0 0 1;
